# xmcd
#
# Track frame offsets: 
#        150
#        13356
#        22195
#        33606
#        49314
#        62249
#        72407
#        85290
#        98965
#        108856
#        121646
#        131781
#        145236
#        156728
#        169058
#        179982
#        193225
#
# Disc length: 2677 seconds
#
# Revision: 1
# Processed by: cddbd v1.5.2PL0 Copyright (c) Steve Scherf et al.
# Submitted via: ExactAudioCopy v0.99pb4
#
DISCID=0d0a7311
DTITLE=Guthrie Woody - Woody Guthrie CD2
DYEAR=2006
DGENRE=Folk USA
TTITLE0=Dead Or Alive (Poor Lazarus)
TTITLE1=Dirty Overalls
TTITLE2=Do-Re-Mi
TTITLE3=Dust Bowl Blues
TTITLE4=End Of The Line
TTITLE5=Ezekiel Saw The Wheel
TTITLE6=Foggy Mountain Top
TTITLE7=Get Along Little Doggies
TTITLE8=Grand Coulee Dam
TTITLE9=Gypsy Davy
TTITLE10=Hang Knot
TTITLE11=Hard Ain't It Hard
TTITLE12=Hard Travelin'
TTITLE13=Hey Lolly Lolly
TTITLE14=Hobo's Lullaby
TTITLE15=House Of The Rising Sun
TTITLE16=Howjadoo
EXTD=YEAR: 2006\nDeja Vu Definitive Gold edition
EXTT0=
EXTT1=
EXTT2=
EXTT3=
EXTT4=
EXTT5=
EXTT6=
EXTT7=
EXTT8=
EXTT9=
EXTT10=
EXTT11=
EXTT12=
EXTT13=
EXTT14=
EXTT15=
EXTT16=
PLAYORDER=
